<svg width="13" height="14" viewBox="0 0 13 14" fill="none" xmlns="http://www.w3.org/2000/svg">
<path opacity="0.8" fill-rule="evenodd" clip-rule="evenodd" d="M12.1654 12.4295C12.1654 12.8262 11.8685 13.1482 11.5023 13.1482H8.44026V8.10713H10.0022L10.2362 6.14276H8.44026V4.88826C8.44026 4.31951 8.58624 3.93195 9.33906 3.93195L10.2994 3.9316V2.1743C10.1331 2.15055 9.56327 2.097 8.90014 2.097C7.5156 2.097 6.5677 3.01253 6.5677 4.69395V6.14276H5.00183V8.10713H6.5677V13.1482H0.812551C0.446287 13.1482 0.149414 12.8262 0.149414 12.4295V0.849593C0.149414 0.452463 0.446287 0.130859 0.812551 0.130859H11.5023C11.8685 0.130859 12.1654 0.452463 12.1654 0.849593V12.4295" fill="white"/>
</svg>
