<svg width="15" height="10" viewBox="0 0 15 10" fill="none" xmlns="http://www.w3.org/2000/svg">
<path opacity="0.8" fill-rule="evenodd" clip-rule="evenodd" d="M4.55908 5.53208V3.7475H8.83524C9.13296 5.90689 8.23458 9.14579 4.55908 9.14579C2.10018 9.14579 0.106445 7.12819 0.106445 4.63961C0.106445 2.15104 2.10018 0.133789 4.55908 0.133789C5.7128 0.133789 6.76404 0.577739 7.55507 1.30631C6.94232 1.89207 6.74577 2.11553 6.57886 2.30529C6.49196 2.40408 6.41311 2.49373 6.28775 2.62061C5.83022 2.23772 5.33135 1.96293 4.55908 1.96293C3.09826 1.96293 1.95809 3.16142 1.95809 4.63961C1.95809 6.11816 3.09826 7.31665 4.55908 7.31665C6.00253 7.31665 6.58895 6.68669 6.96622 5.52962C6.26968 5.52962 4.55908 5.53208 4.55908 5.53208ZM12.5824 2.27522V3.83659H14.1252V4.9519H12.5824V6.55819H11.4804V4.9519H9.89314V3.83659H11.4804V2.27522H12.5824Z" fill="white"/>
</svg>
