<svg width="13" height="14" viewBox="0 0 13 14" fill="none" xmlns="http://www.w3.org/2000/svg">
<path opacity="0.8" fill-rule="evenodd" clip-rule="evenodd" d="M10.8196 0.130859H1.66023C0.871358 0.130859 0.231934 0.821794 0.231934 1.67463V11.6044C0.231934 12.4569 0.871358 13.1482 1.66023 13.1482H10.8196C11.6085 13.1482 12.2479 12.4569 12.2479 11.6044V1.67463C12.2479 0.821794 11.6085 0.130859 10.8196 0.130859ZM8.8685 2.16473C8.8685 1.94034 9.03663 1.7582 9.24376 1.7582H10.3702C10.5777 1.7582 10.7458 1.94034 10.7458 2.16473V3.38541C10.7458 3.6098 10.5777 3.79194 10.3702 3.79194H9.24376C9.03663 3.79194 8.8685 3.6098 8.8685 3.38541V2.16473ZM6.25407 4.15739C7.53029 4.15739 8.56497 5.27581 8.56497 6.65483C8.56497 8.03422 7.53029 9.15228 6.25407 9.15228C4.97817 9.15228 3.94349 8.03422 3.94349 6.65483C3.94349 5.27581 4.97817 4.15739 6.25407 4.15739ZM11.1216 11.5213C11.1216 11.7457 10.9535 11.9282 10.746 11.9282H1.73409C1.52663 11.9282 1.3585 11.7457 1.3585 11.5213V5.41932H2.86054C2.66488 5.72431 2.59868 6.29346 2.59868 6.65491C2.59868 8.83316 4.2387 10.6056 6.25398 10.6056C8.26959 10.6056 9.90961 8.83316 9.90961 6.65491C9.90961 6.29346 9.86209 5.73319 9.61956 5.41932H11.1216V11.5213Z" fill="white"/>
</svg>
