<svg width="23" height="23" viewBox="0 0 23 23" fill="none" xmlns="http://www.w3.org/2000/svg">
<path d="M21.6606 10.0253H12.6486V1.0133C12.6486 0.412496 12.248 0.0119629 11.6472 0.0119629C11.0464 0.0119629 10.6459 0.412496 10.6459 1.0133V10.0253H1.6339C1.0331 10.0253 0.632568 10.4258 0.632568 11.0266C0.632568 11.6274 1.0331 12.028 1.6339 12.028H10.6459V21.04C10.6459 21.6408 11.0464 22.0413 11.6472 22.0413C12.248 22.0413 12.6486 21.6408 12.6486 21.04V12.028H21.6606C22.2614 12.028 22.6619 11.6274 22.6619 11.0266C22.6619 10.4258 22.2614 10.0253 21.6606 10.0253Z" fill="white"/>
</svg>
