<svg width="14" height="12" viewBox="0 0 14 12" fill="none" xmlns="http://www.w3.org/2000/svg">
<path opacity="0.8" fill-rule="evenodd" clip-rule="evenodd" d="M12.8478 0.335953C12.3313 0.654278 11.7606 0.885787 11.1506 1.00966C10.6647 0.469706 9.97027 0.132324 9.20145 0.132324C7.72778 0.132324 6.53181 1.37739 6.53181 2.9129C6.53181 3.131 6.55475 3.34239 6.60063 3.54602C4.38108 3.42991 2.41352 2.32425 1.09555 0.639808C0.865466 1.05201 0.734087 1.5302 0.734087 2.03945C0.734087 3.0036 1.20538 3.85482 1.92241 4.35348C1.48517 4.34007 1.07261 4.21373 0.711843 4.00692V4.0408C0.711843 5.38856 1.63254 6.51293 2.85527 6.76738C2.63144 6.83267 2.3951 6.86549 2.15145 6.86549C1.97941 6.86549 1.81154 6.84855 1.64888 6.81608C1.98879 7.92034 2.97449 8.72462 4.14335 8.74615C3.2296 9.4922 2.07742 9.93686 0.826539 9.93686C0.611049 9.93686 0.397992 9.92416 0.189453 9.89875C1.37117 10.6864 2.77568 11.147 4.28342 11.147C9.19624 11.147 11.8819 6.91066 11.8819 3.23581C11.8819 3.11476 11.8798 2.99407 11.8753 2.87549C12.397 2.48341 12.8502 1.99392 13.2068 1.43633C12.7285 1.65725 12.2134 1.80688 11.6733 1.87393C12.2249 1.5302 12.6483 0.985307 12.8478 0.335953Z" fill="white"/>
</svg>
